<svg width="40" height="40" viewBox="0 0 40 40" fill="none" xmlns="http://www.w3.org/2000/svg">
<path d="M22.5078 20.0869V20.0879C22.824 21.0361 23.3565 21.8979 24.0635 22.6045C24.7705 23.3111 25.6326 23.8435 26.5811 24.1592L30.2803 25.3906L26.5791 26.624C25.6309 26.9402 24.7691 27.4728 24.0625 28.1797C23.4442 28.7983 22.9588 29.5357 22.6357 30.3457L22.5078 30.6973L21.2744 34.3965L20.043 30.6953L19.9141 30.3438C19.5908 29.5341 19.1056 28.797 18.4873 28.1787C17.7808 27.4723 16.9195 26.94 15.9717 26.624L12.2695 25.3906L15.9717 24.1592C16.9197 23.8432 17.7807 23.3101 18.4873 22.6035C19.1939 21.8969 19.727 21.0359 20.043 20.0879V20.0869L21.2744 16.3857L22.5078 20.0869ZM13.8594 8.5293L13.8604 8.53027C14.2755 9.7729 15.2495 10.747 16.4922 11.1621H16.4932L17.8604 11.6172L16.4932 12.0732C15.88 12.2775 15.3223 12.6221 14.8652 13.0791C14.4656 13.4788 14.1523 13.9551 13.9434 14.4785L13.8594 14.7061L13.4043 16.0723L12.9492 14.7061C12.7449 14.0929 12.4003 13.5361 11.9434 13.0791C11.4864 12.6221 10.9295 12.2775 10.3164 12.0732L8.94824 11.6172L10.3164 11.1621C10.9293 10.9579 11.4865 10.614 11.9434 10.1572C12.4004 9.7002 12.7449 9.14249 12.9492 8.5293L13.4043 7.16211L13.8594 8.5293ZM27.2441 5.70215C27.5452 6.60694 28.2543 7.31537 29.1592 7.61621L29.3555 7.68164L29.1582 7.74805C28.7124 7.89649 28.3069 8.14722 27.9746 8.47949C27.6838 8.7704 27.4555 9.11707 27.3037 9.49805L27.2441 9.66309L27.1777 9.86035L27.1123 9.66309C26.9639 9.2172 26.7141 8.81184 26.3818 8.47949C26.0494 8.14703 25.6434 7.89646 25.1973 7.74805H25.1982L25.001 7.68164L25.1982 7.61621L25.1992 7.61719C26.1045 7.3163 26.8134 6.60644 27.1143 5.70117H27.1152L27.1787 5.50684L27.2441 5.70215Z" stroke="#6865FF" stroke-width="1.5"/>
</svg>
